<?xml version="1.0" encoding="UTF-8"?>
<svg id="Layer_1" xmlns="http://www.w3.org/2000/svg" version="1.1" xmlns:xlink="http://www.w3.org/1999/xlink" viewBox="0 0 2440 1440">
  <!-- Generator: Adobe Illustrator 29.5.1, SVG Export Plug-In . SVG Version: 2.1.0 Build 141)  -->
  <defs>
    <style>
      .st0 {
        fill: none;
      }

      .st1 {
        clip-path: url(#clippath-1);
      }

      .st2 {
        clip-path: url(#clippath);
      }
    </style>
    <clipPath id="clippath">
      <polyline class="st0" points="-36.6 -30.3 2476.6 -30.3 2476.6 1470.3 -36.6 1470.3 -36.6 -30.3"/>
    </clipPath>
    <clipPath id="clippath-1">
      <polyline class="st0" points="2476.6 -30.3 -36.6 -30.3 -36.6 1470.3 2476.6 1470.3 2476.6 -30.3"/>
    </clipPath>
  </defs>
  <g class="st2">
    <g class="st1">
      <image width="901" height="897" transform="translate(-37.4 1471.2) scale(.5 -.5)" xlink:href="061425-exp-bg-1.png"/>
      <image width="900" height="897" transform="translate(393.6 1471.2) scale(.5 -.5)" xlink:href="061425-exp-bg-2.png"/>
      <image width="901" height="897" transform="translate(824.2 1471.2) scale(.5 -.5)" xlink:href="061425-exp-bg-3.png"/>
      <image width="901" height="897" transform="translate(1255.2 1471.2) scale(.5 -.5)" xlink:href="061425-exp-bg-4.png"/>
      <image width="900" height="897" transform="translate(1686.2 1471.2) scale(.5 -.5)" xlink:href="061425-exp-bg-5.png"/>
      <image width="751" height="1120" transform="translate(2116.8 1471.2) scale(.5 -.5)" xlink:href="061425-exp-bg-6.png"/>
      <image width="901" height="896" transform="translate(-37.4 1042.1) scale(.5 -.5)" xlink:href="061425-exp-bg-7.png"/>
      <image width="900" height="896" transform="translate(393.6 1042.1) scale(.5 -.5)" xlink:href="061425-exp-bg-8.png"/>
      <image width="901" height="896" transform="translate(824.2 1042.1) scale(.5 -.5)" xlink:href="061425-exp-bg-9.png"/>
      <image width="901" height="896" transform="translate(1255.2 1042.1) scale(.5 -.5)" xlink:href="061425-exp-bg-10.png"/>
      <image width="900" height="896" transform="translate(1686.2 1042.1) scale(.5 -.5)" xlink:href="061425-exp-bg-11.png"/>
      <image width="751" height="1119" transform="translate(2116.8 935) scale(.5 -.5)" xlink:href="061425-exp-bg-12.png"/>
      <image width="901" height="896" transform="translate(-37.4 613.4) scale(.5 -.5)" xlink:href="061425-exp-bg-13.png"/>
      <image width="900" height="896" transform="translate(393.6 613.4) scale(.5 -.5)" xlink:href="061425-exp-bg-14.png"/>
      <image width="901" height="896" transform="translate(824.2 613.4) scale(.5 -.5)" xlink:href="061425-exp-bg-15.png"/>
      <image width="901" height="896" transform="translate(1255.2 613.4) scale(.5 -.5)" xlink:href="061425-exp-bg-16.png"/>
      <image width="900" height="896" transform="translate(1686.2 613.4) scale(.5 -.5)" xlink:href="061425-exp-bg-17.png"/>
      <image width="751" height="897" transform="translate(2116.8 399.4) scale(.5 -.5)" xlink:href="061425-exp-bg-18.png"/>
      <image width="1873" height="450" transform="translate(-37.4 184.8) scale(.5 -.5)" xlink:href="061425-exp-bg-19.png"/>
      <image width="1873" height="450" transform="translate(860.2 184.8) scale(.5 -.5)" xlink:href="061425-exp-bg-20.png"/>
      <image width="751" height="450" transform="translate(1757.8 184.8) scale(.5 -.5)" xlink:href="061425-exp-bg-21.png"/>
    </g>
  </g>
</svg>